<mxfile host="app.diagrams.net" modified="2023-06-23T13:45:04.477Z" agent="Mozilla/5.0 (Macintosh; Intel Mac OS X 10_15_7) AppleWebKit/537.36 (KHTML, like Gecko) Chrome/114.0.0.0 Safari/537.36" etag="wJLuv85zguAHopa0IRt-" version="21.3.8" type="github">
  <diagram id="rGnRi5jYEAo9KuGM_sZk" name="Page-1">
    <mxGraphModel dx="1363" dy="926" grid="1" gridSize="10" guides="1" tooltips="1" connect="1" arrows="1" fold="1" page="1" pageScale="1" pageWidth="850" pageHeight="1100" math="1" shadow="0">
      <root>
        <mxCell id="0" />
        <mxCell id="1" parent="0" />
      </root>
    </mxGraphModel>
  </diagram>
</mxfile>
